<?xml version="1.0" standalone="no"?>
<!DOCTYPE svg PUBLIC "-//W3C//DTD SVG 20010904//EN"
 "http://www.w3.org/TR/2001/REC-SVG-20010904/DTD/svg10.dtd">
<svg version="1.0" xmlns="http://www.w3.org/2000/svg"
 width="1039.000000pt" height="1039.000000pt" viewBox="0 0 1039.000000 1039.000000"
 preserveAspectRatio="xMidYMid meet">
<metadata>
Created by potrace 1.14, written by Peter Selinger 2001-2017
</metadata>
<g transform="translate(0.000000,1039.000000) scale(0.100000,-0.100000)"
fill="#000000" stroke="none">
<path d="M5115 10379 c-44 -4 -112 -5 -151 -2 -280 17 -933 -101 -1399 -253
-543 -178 -1152 -501 -1533 -811 l-43 -35 53 -36 c29 -19 55 -38 58 -41 24
-28 113 -91 123 -88 7 3 5 6 -5 6 -10 1 -18 7 -18 14 0 8 -12 20 -26 27 -30
17 -84 87 -84 110 0 14 54 67 93 92 7 4 8 8 2 8 -5 0 9 10 33 21 23 12 47 30
53 40 5 11 16 19 23 19 8 0 37 16 65 35 28 20 51 32 51 29 0 -4 12 5 26 19 14
15 36 29 48 33 11 4 35 17 51 29 31 23 242 140 305 169 19 9 46 23 60 31 14 8
44 22 68 32 23 9 42 21 42 26 0 5 7 6 16 3 8 -3 12 -2 9 4 -3 6 1 10 10 10 8
0 38 11 65 25 28 14 50 22 50 18 0 -5 6 -1 13 7 14 17 30 22 74 24 22 0 36 9
50 28 10 16 24 28 31 28 6 0 12 3 12 8 0 4 10 8 23 9 12 0 60 13 107 28 47 15
103 32 125 39 22 6 43 14 46 18 3 5 18 10 35 12 16 3 45 9 64 15 64 18 274 72
320 82 46 11 82 17 230 43 47 8 121 22 165 31 88 18 129 22 255 30 47 3 107 7
133 10 32 3 56 -1 70 -10 19 -11 32 -11 92 1 165 35 652 19 714 -23 14 -10 28
-17 31 -16 3 1 4 -13 2 -31 -2 -18 3 -80 12 -137 9 -57 28 -176 42 -264 37
-243 55 -347 65 -380 4 -16 13 -66 19 -111 13 -86 22 -110 38 -100 6 3 6 21 1
48 -5 24 -11 70 -14 103 -3 33 -10 77 -16 97 -5 20 -12 54 -14 75 -3 21 -8 56
-11 78 -8 62 -62 377 -86 504 -18 96 -19 115 -7 123 21 14 233 -3 349 -28 14
-3 34 -7 45 -9 11 -2 20 -4 20 -5 0 -1 9 -3 20 -5 100 -18 155 -33 450 -114
61 -17 118 -31 128 -31 11 0 15 -4 11 -12 -4 -6 -3 -8 2 -5 9 5 96 -19 144
-40 8 -3 24 -8 35 -10 11 -2 22 -8 23 -13 2 -6 11 -10 20 -10 20 0 89 -23 98
-33 4 -4 14 -7 21 -7 8 0 47 -15 86 -34 73 -35 115 -53 130 -54 4 -1 20 -8 35
-15 15 -8 40 -21 56 -28 16 -8 31 -22 34 -31 2 -9 20 -22 40 -29 37 -12 169
-80 212 -109 14 -10 61 -37 105 -60 44 -24 83 -47 86 -53 4 -5 12 -6 18 -3 6
4 10 2 9 -4 -3 -11 82 -69 135 -92 15 -7 27 -15 27 -19 0 -4 30 -27 68 -53 37
-25 84 -61 104 -79 20 -17 55 -43 77 -57 23 -13 41 -30 41 -38 0 -7 4 -11 9
-8 5 4 11 3 13 -1 1 -5 18 -20 36 -35 19 -16 31 -28 27 -28 -4 0 1 -7 9 -16 9
-8 16 -24 16 -35 0 -23 21 -24 59 -4 16 8 31 11 35 8 3 -4 6 -1 6 5 0 25 -322
279 -532 420 -546 366 -1142 617 -1817 767 -372 82 -872 127 -1156 104z
m-2245 -594 c0 -3 -2 -5 -5 -5 -3 0 -5 2 -5 5 0 3 2 5 5 5 3 0 5 -2 5 -5z
M4897 10248 c-9 -24 -21 -83 -26 -133 -15 -141 -40 -343 -52 -420 -6 -38 -13
-90 -15 -115 -8 -106 -14 -179 -19 -230 -6 -60 4 -91 22 -68 12 14 29 115 38
223 3 39 14 142 25 230 10 88 26 219 34 290 17 141 23 252 14 260 -3 3 -12
-14 -21 -37z M4850 9217 c-37 -9 -63 -28 -149 -111 -148 -145 -302 -378 -411
-624 -43 -98 -91 -206 -108 -242 -71 -152 -212 -577 -248 -747 -23 -114 -26
-138 -16 -172 15 -47 53 -75 106 -75 67 -1 98 57 136 256 24 125 76 314 95
343 7 12 20 49 29 84 14 56 34 111 92 251 34 83 200 404 247 480 77 122 146
209 255 318 145 146 158 193 67 236 -37 18 -33 18 -95 3z M1768 9098 c-383
-332 -785 -818 -1042 -1260 -70 -121 -86 -173 -67 -218 8 -21 10 -16 10 34 1
52 3 57 14 42 12 -16 13 -14 14 17 1 44 9 57 33 57 12 0 26 13 35 30 9 17 20
30 25 30 6 0 9 3 8 8 -5 13 25 77 44 93 10 9 18 23 18 30 0 8 16 30 35 49 19
19 35 38 35 42 0 14 87 138 93 132 2 -2 10 9 17 26 7 17 26 47 42 68 15 20 36
47 46 60 9 13 24 32 34 42 9 10 13 22 10 26 -4 4 1 4 10 1 12 -4 15 -2 11 9
-3 7 0 14 6 14 6 0 17 12 25 28 8 15 18 27 22 27 5 0 9 5 10 10 1 6 17 26 35
46 19 20 57 61 84 93 129 147 409 415 465 444 26 14 88 2 117 -23 7 -5 23 -18
35 -27 13 -9 37 -28 53 -41 46 -37 134 -87 139 -79 2 4 -57 54 -132 110 -75
56 -149 113 -164 127 -15 14 -30 25 -33 25 -2 0 -42 -32 -87 -72z M5335 9163
c-244 -3 -267 -5 -242 -18 24 -12 75 -14 295 -11 285 5 304 6 310 24 2 8 -12
11 -45 10 -26 -2 -169 -4 -318 -5z M5832 9140 c-40 -9 -93 -65 -206 -215 -224
-299 -303 -454 -452 -891 -31 -92 -67 -193 -80 -224 -30 -75 -54 -180 -54
-240 0 -40 4 -52 23 -64 40 -25 83 -29 123 -10 42 20 51 38 88 174 40 145 68
234 76 245 4 6 11 25 15 44 13 60 123 319 205 479 98 193 138 255 265 411 118
145 125 155 125 202 0 59 -63 103 -128 89z M8650 9046 c0 -2 7 -7 16 -10 8 -3
12 -2 9 4 -6 10 -25 14 -25 6z M8680 9015 c0 -3 2 -5 5 -5 3 0 5 2 5 5 0 3 -2
5 -5 5 -3 0 -5 -2 -5 -5z M2260 9000 c0 -5 5 -10 11 -10 5 0 7 5 4 10 -3 6 -8
10 -11 10 -2 0 -4 -4 -4 -10z M8687 8924 c-57 -46 -69 -68 -24 -47 51 25 116
25 100 0 -4 -6 0 -8 10 -4 10 3 17 3 17 -1 0 -5 16 -23 36 -42 79 -75 150
-149 163 -168 8 -12 19 -18 24 -15 6 3 7 1 4 -4 -4 -6 9 -25 28 -42 19 -17 35
-34 35 -39 0 -5 30 -43 68 -84 37 -42 90 -106 117 -143 28 -37 58 -76 68 -86
9 -10 14 -19 10 -19 -4 0 3 -11 17 -25 35 -34 52 -55 45 -55 -6 0 31 -58 45
-70 17 -16 170 -265 170 -278 0 -7 51 -86 68 -107 4 -5 9 -14 11 -20 7 -28 34
-74 46 -79 7 -2 27 -35 45 -73 99 -208 131 -279 132 -293 0 -3 4 -11 10 -17 6
-7 8 -13 4 -13 -3 0 3 -16 14 -35 11 -20 20 -42 20 -49 0 -7 13 -39 29 -72 16
-32 32 -75 36 -94 4 -19 11 -41 15 -50 13 -27 31 -84 34 -109 2 -13 8 -26 13
-30 6 -3 14 -22 18 -41 4 -19 16 -62 26 -95 11 -33 22 -75 25 -94 3 -19 10
-46 16 -60 5 -14 11 -33 13 -41 14 -62 36 -165 40 -192 3 -18 10 -55 15 -83 6
-27 12 -63 14 -80 10 -82 30 -191 38 -199 4 -6 8 -31 8 -57 0 -46 45 -297 55
-307 12 -12 7 108 -11 268 -117 1034 -547 2017 -1228 2807 -123 143 -355 383
-370 383 -6 0 -37 -21 -69 -46z M2227 8893 c-1 -1 1 -68 4 -150 4 -81 7 -479
8 -883 1 -404 5 -741 10 -748 6 -9 12 0 20 32 14 57 14 109 0 123 -17 17 4 24
89 30 102 7 104 13 5 13 -69 0 -81 3 -85 18 -2 9 -5 188 -7 397 -1 255 -6 382
-13 386 -24 15 7 28 85 33 45 3 222 8 392 11 511 8 476 7 425 14 -25 4 -229 3
-454 -2 -224 -5 -414 -6 -422 -3 -21 8 -21 623 0 652 14 18 29 19 415 17 265
-1 407 -6 421 -13 15 -8 20 -8 20 2 0 10 49 14 223 16 430 5 802 1 813 -10 4
-4 13 -3 20 2 8 8 17 6 28 -5 15 -15 16 -15 16 6 0 15 4 19 13 12 18 -13 111
-7 138 9 21 11 -48 14 -471 20 -706 11 -1691 23 -1693 21z M5970 8851 c0 -7
30 -11 89 -11 91 0 683 -15 946 -25 83 -2 305 -9 495 -15 844 -25 1036 -31
1053 -36 14 -5 17 2 17 41 0 42 -1 45 -20 35 -19 -10 -1466 0 -2257 16 -236 5
-323 3 -323 -5z M5970 8816 c0 -19 23 -33 28 -18 2 7 13 12 23 12 11 0 17 5
14 10 -10 16 -65 12 -65 -4z M6322 8790 c0 -19 2 -27 5 -17 2 9 2 25 0 35 -3
9 -5 1 -5 -18z M3653 8792 c-84 -14 -245 -315 -349 -652 -27 -89 -94 -415 -94
-459 l0 -32 -30 16 c-58 30 -90 19 -255 -93 -103 -70 -279 -205 -379 -292 -60
-52 -133 -117 -186 -166 -30 -28 -64 -57 -75 -65 -42 -29 -332 -339 -424 -453
l-96 -120 -3 800 c-1 439 0 805 3 812 2 7 22 12 46 12 33 0 40 3 35 16 -3 9
-6 33 -6 54 0 44 -15 52 -69 36 l-34 -10 6 -869 6 -868 -70 -87 c-109 -136
-236 -319 -327 -469 -82 -136 -232 -424 -247 -473 -4 -14 -29 -77 -56 -140
-299 -717 -344 -1392 -141 -2115 29 -105 40 -944 12 -880 -10 22 -19 46 -19
54 -1 7 -9 28 -20 45 -10 17 -24 48 -31 69 -6 20 -17 43 -24 50 -23 23 -56 75
-56 87 0 7 -14 30 -31 51 -17 21 -28 39 -26 39 3 0 -18 46 -47 103 -56 108
-74 193 -54 247 5 14 14 45 18 70 9 49 34 126 56 177 8 17 14 47 14 66 0 19 6
50 14 68 15 39 30 147 17 133 -7 -8 -53 -156 -71 -229 -54 -216 -116 -388
-131 -364 -4 7 -13 42 -20 78 -6 36 -21 84 -32 106 -12 22 -22 49 -24 59 -2
11 -15 44 -30 74 -14 30 -26 61 -26 71 0 9 -6 25 -13 36 -8 11 -14 29 -14 40
0 11 -6 29 -14 40 -7 11 -21 45 -30 75 -9 30 -21 63 -27 73 -5 9 -18 52 -29
95 -91 359 -111 437 -112 437 -3 0 -32 156 -38 205 -23 174 -30 217 -35 239
-4 14 -10 59 -16 100 -25 208 -30 233 -48 239 -11 4 -13 -12 -7 -89 68 -926
358 -1771 872 -2540 872 -1304 2297 -2143 3874 -2279 143 -12 150 -12 150 0 0
27 -79 45 -301 70 -48 5 -130 17 -183 25 -53 9 -102 13 -108 9 -7 -4 -8 -3 -4
4 5 8 -4 12 -26 12 -99 0 -575 125 -818 215 -85 31 -171 61 -190 67 -19 6 -37
13 -40 17 -3 3 -32 17 -65 30 -33 13 -86 37 -117 52 -32 15 -58 26 -58 24 0
-2 -32 14 -71 36 -39 21 -75 36 -80 33 -5 -3 -9 0 -9 6 0 6 -6 10 -12 9 -49
-6 -78 2 -78 22 0 30 147 326 166 333 8 3 34 -5 57 -18 141 -82 590 -246 837
-305 502 -120 869 -158 1422 -147 600 11 843 45 1336 185 526 150 985 352
1533 676 19 11 37 21 41 23 4 2 15 -14 24 -35 9 -21 27 -60 39 -88 12 -27 39
-93 61 -146 l39 -97 65 51 c714 557 1285 1301 1615 2107 99 242 226 619 245
730 4 25 21 106 38 180 63 281 137 855 102 798 -13 -22 -39 -106 -34 -111 7
-7 -71 -604 -85 -652 -9 -29 -9 -29 -11 -5 -2 43 0 386 6 960 l5 555 -243 292
c-134 160 -248 299 -254 309 -9 16 -14 9 -33 -49 l-23 -67 -83 79 c-129 122
-204 149 -240 89 -31 -55 -385 -567 -395 -573 -47 -29 63 -248 225 -451 229
-285 546 -564 644 -564 32 0 38 24 44 175 4 77 16 298 27 491 18 319 19 356 5
395 -25 70 -92 188 -147 257 -44 57 -50 68 -45 99 8 50 15 52 45 17 155 -181
311 -364 374 -440 l77 -92 -10 -793 c-9 -801 -14 -901 -47 -961 -10 -18 -24
-58 -31 -88 -7 -30 -19 -68 -27 -85 -7 -16 -24 -68 -37 -115 -14 -47 -34 -107
-46 -133 -12 -26 -19 -52 -16 -57 3 -6 1 -10 -6 -10 -7 0 -10 -3 -6 -6 3 -3
-1 -27 -9 -52 -7 -26 -14 -58 -14 -72 -1 -58 -17 -50 -38 17 -20 62 -184 749
-213 888 -14 69 -38 101 -80 107 -36 6 -37 7 11 -53 22 -28 40 -56 41 -62 3
-48 12 -94 20 -101 5 -6 9 -21 9 -34 0 -13 9 -60 21 -105 12 -45 22 -91 24
-102 1 -11 10 -45 19 -75 9 -30 21 -86 27 -124 5 -38 14 -75 20 -82 6 -8 12
-31 12 -53 1 -21 6 -37 11 -34 4 3 5 -4 2 -15 -4 -11 0 -38 9 -59 9 -21 19
-68 22 -105 7 -76 -1 -105 -70 -258 -44 -98 -55 -128 -49 -134 3 -3 0 -6 -6
-6 -7 0 -11 -3 -10 -7 5 -14 -35 -133 -44 -133 -4 0 -8 116 -8 258 0 274 -14
596 -30 702 -5 36 -15 103 -21 150 -6 47 -17 110 -24 140 -8 30 -19 93 -26
140 -42 296 -152 539 -266 586 -43 18 -115 18 -160 -1 -45 -19 -42 -23 32 -30
109 -10 170 -75 221 -230 14 -44 32 -90 40 -102 8 -12 14 -29 14 -38 0 -8 4
-15 10 -15 41 0 27 -83 -48 -283 -25 -65 -41 -85 -43 -49 -1 38 -16 -26 -38
-163 -27 -167 -44 -247 -82 -379 -16 -55 -26 -102 -24 -104 2 -3 14 2 26 9 37
25 84 184 119 404 22 138 63 259 103 303 20 21 86 32 88 15 0 -5 3 -19 6 -33
2 -14 6 -38 6 -55 1 -16 5 -32 9 -35 3 -3 9 -39 13 -80 3 -41 9 -97 12 -125
20 -167 19 -711 -2 -856 -18 -129 -30 -189 -50 -234 -14 -36 -103 -187 -115
-195 -3 -3 -12 -20 -19 -38 -33 -81 -112 -111 -235 -88 -101 19 -97 19 -89 0
4 -10 14 -14 29 -11 13 2 21 0 18 -4 -2 -4 11 -11 31 -15 19 -3 38 -10 41 -15
3 -5 16 -9 30 -9 44 0 35 -22 -43 -106 -24 -25 -42 -49 -40 -53 1 -5 -13 -25
-30 -44 -18 -20 -33 -39 -33 -43 0 -4 -16 -21 -34 -39 -19 -18 -33 -35 -30
-38 3 -3 -8 -13 -24 -21 -17 -9 -37 -23 -46 -31 -15 -15 -16 -15 -17 2 0 16
-1 16 -9 -2 -8 -19 -9 -19 -9 3 -1 12 4 22 9 22 6 0 10 25 10 56 0 107 -45 27
-48 -84 -2 -124 -20 -154 -173 -302 -76 -74 -175 -168 -219 -209 -57 -52 -80
-81 -80 -97 0 -18 -6 -24 -21 -24 -15 0 -27 16 -50 68 -16 37 -45 97 -64 135
l-33 67 81 68 c45 37 118 94 161 127 44 33 112 100 154 150 41 49 94 110 117
135 51 55 128 162 183 255 23 39 45 75 49 80 14 18 92 199 112 260 18 57 52
216 66 315 10 71 6 325 -5 328 -6 2 -10 22 -10 45 0 61 -34 209 -68 303 -52
142 -141 258 -283 366 -61 46 -69 56 -69 85 0 37 -2 38 -32 22 -46 -25 -128
54 -185 177 l-28 59 1 245 c2 1381 15 4037 19 4115 5 109 -1 133 -27 112 -14
-9 -15 -20 -9 -54 7 -37 4 -383 -3 -390 -2 -2 -92 -7 -202 -12 l-199 -8 207
-1 c195 -2 245 -9 210 -31 -6 -4 -11 -157 -14 -424 -3 -229 -7 -419 -9 -421
-2 -2 -113 -6 -247 -9 -134 -3 -246 -8 -250 -12 -4 -3 97 -6 223 -5 320 2 289
6 281 -32 -13 -65 -10 -960 4 -968 8 -5 9 -13 3 -24 -5 -9 -6 -42 -2 -74 18
-145 4 -314 -17 -194 -6 39 -34 162 -60 270 -66 271 -222 606 -397 849 -325
452 -823 709 -1562 804 -170 22 -746 39 -858 25 -100 -13 -141 -83 -82 -142
l24 -24 400 0 c316 1 424 -3 513 -15 684 -97 1158 -360 1442 -799 379 -585
478 -1124 416 -2281 -28 -526 3 -646 223 -855 242 -229 285 -276 321 -348 45
-89 92 -267 107 -406 24 -221 -31 -505 -142 -727 -198 -397 -480 -685 -947
-966 -196 -118 -535 -296 -692 -362 -41 -18 -84 -36 -95 -41 -24 -11 -67 -26
-350 -124 -456 -157 -882 -244 -1240 -253 -636 -16 -1055 5 -1400 68 -1065
196 -1952 770 -2653 1717 -255 344 -421 772 -474 1217 -20 171 -17 623 5 765
43 280 117 535 237 820 18 41 38 92 46 113 66 176 289 552 489 822 312 421
879 976 1262 1236 26 18 69 50 94 71 l46 38 5 -108 c5 -114 19 -157 60 -186
31 -22 86 -20 125 4 43 26 51 60 63 275 22 389 51 509 215 875 96 213 113 294
74 344 -25 32 -47 43 -76 38z m5842 -2583 c22 -11 45 -26 50 -32 6 -7 28 -24
50 -39 22 -15 48 -41 58 -58 10 -16 22 -30 28 -30 5 0 9 -7 9 -16 0 -8 5 -12
10 -9 6 3 10 -1 10 -11 0 -9 14 -32 30 -51 17 -19 28 -38 25 -43 -3 -4 -2 -10
3 -12 4 -1 18 -20 30 -40 19 -30 24 -57 29 -145 11 -208 5 -593 -9 -593 -5 0
-8 -7 -8 -15 0 -21 -14 -19 -48 10 -16 13 -32 21 -36 17 -4 -4 -6 0 -4 8 2 8
-2 14 -9 13 -7 -2 -10 3 -7 11 3 7 -10 24 -28 38 -19 14 -47 45 -63 69 -16 24
-46 60 -67 80 -21 20 -38 40 -38 44 0 5 -18 24 -40 43 -23 19 -39 36 -36 39 7
7 -76 78 -88 75 -6 -2 -8 0 -4 4 4 3 -14 23 -40 42 -26 20 -48 40 -50 44 -2 4
-10 8 -18 8 -8 0 -14 6 -14 14 0 8 -16 20 -35 27 -19 7 -35 18 -35 25 0 6 -11
19 -24 29 -29 22 -23 46 24 103 17 20 30 41 30 47 0 5 22 33 48 61 27 28 66
79 87 115 54 89 85 129 101 129 8 0 14 5 14 10 0 16 22 12 65 -11z m-235 -204
c0 -3 -2 -5 -5 -5 -3 0 -5 2 -5 5 0 3 2 5 5 5 3 0 5 -2 5 -5z m-151 -320 c104
-52 260 -197 460 -427 221 -254 343 -485 263 -496 -108 -16 -531 385 -715 677
-147 233 -150 318 -8 246z m91 -1020 c0 -3 -2 -5 -5 -5 -3 0 -5 2 -5 5 0 3 2
5 5 5 3 0 5 -2 5 -5z m1037 -632 c-2 -16 -4 -5 -4 22 0 28 2 40 4 28 2 -13 2
-35 0 -50z m-9177 -1234 c113 -220 196 -358 277 -459 6 -8 42 -53 78 -100 177
-227 374 -433 545 -569 58 -47 152 -130 210 -186 58 -56 146 -130 195 -165 50
-35 92 -66 95 -69 11 -14 210 -141 234 -151 23 -8 26 -15 26 -58 0 -26 -4 -52
-9 -58 -6 -5 -35 -60 -65 -121 -31 -62 -57 -113 -60 -113 -31 0 -36 15 -36
105 l0 93 48 31 c54 34 72 38 72 16 0 -8 5 -15 11 -15 7 0 9 10 4 27 -4 16 -7
28 -8 28 -1 0 -12 6 -24 13 -13 6 -34 12 -48 12 -14 0 -25 4 -25 9 0 5 -8 8
-17 7 -10 0 -17 5 -15 13 5 25 -9 51 -28 51 -19 0 -38 -25 -35 -45 16 -123 16
-137 6 -149 -7 -8 -11 -18 -10 -22 6 -33 -20 -50 -52 -34 -33 18 -54 62 -65
139 -8 58 -14 76 -25 75 -11 -1 -14 6 -11 21 5 30 -17 43 -35 20 -18 -25 -17
-31 8 -56 18 -18 21 -30 17 -75 -3 -30 -7 -57 -10 -60 -11 -10 -44 14 -103 73
-32 32 -59 56 -61 53 -2 -3 -11 2 -21 10 -10 8 -43 28 -73 44 -102 55 -80 71
81 61 71 -5 109 -3 113 3 8 13 -24 19 -144 27 -76 5 -92 10 -152 46 -37 21
-73 47 -80 57 -7 9 -32 29 -55 45 -23 15 -49 37 -57 49 -18 28 -46 196 -46
277 0 61 -7 75 -28 62 -9 -5 -13 -35 -14 -88 0 -99 -7 -113 -42 -89 -24 15
-31 14 -27 -7 1 -5 -3 -6 -8 -2 -6 3 -8 12 -4 20 3 10 -15 34 -51 68 -31 29
-56 58 -56 64 0 7 -9 17 -20 23 -11 6 -20 17 -20 25 0 8 -6 15 -13 15 -7 0
-42 34 -77 76 -35 41 -70 79 -76 82 -7 4 -20 21 -30 38 -11 17 -38 55 -62 85
-24 30 -53 67 -65 82 -12 16 -30 37 -39 48 -10 10 -16 29 -15 41 2 12 -3 30
-12 39 -15 19 -24 89 -10 89 4 0 13 2 21 5 7 3 18 -5 23 -17 6 -13 16 -22 23
-20 7 1 12 -3 12 -9 0 -5 5 -7 11 -3 7 4 1 16 -15 33 -14 15 -26 31 -26 37 0
5 -8 21 -17 34 -10 14 -19 29 -20 35 -12 47 -24 104 -38 180 -9 50 -20 109
-26 133 -5 23 -9 55 -9 70 0 16 -7 37 -15 48 -18 24 -20 77 -2 72 6 -2 50 -78
97 -169z m-23 -386 c-4 -3 -7 0 -7 7 0 7 3 10 7 7 3 -4 3 -10 0 -14z m3 -28
c0 -3 -2 -5 -5 -5 -3 0 -5 2 -5 5 0 3 2 5 5 5 3 0 5 -2 5 -5z m1830 -1780 c0
-3 -2 -5 -5 -5 -3 0 -5 2 -5 5 0 3 2 5 5 5 3 0 5 -2 5 -5z M9740 5175 c0 -3 2
-5 5 -5 3 0 5 2 5 5 0 3 -2 5 -5 5 -3 0 -5 -2 -5 -5z M1130 2290 c0 -5 12 -10
26 -10 14 0 23 4 19 10 -3 6 -15 10 -26 10 -10 0 -19 -4 -19 -10z M1191 2273
c-1 -19 15 -24 41 -13 22 10 22 10 -4 5 -16 -3 -28 0 -31 8 -4 9 -6 9 -6 0z
M1130 2265 c0 -3 2 -5 5 -5 3 0 5 2 5 5 0 3 -2 5 -5 5 -3 0 -5 -2 -5 -5z
M1666 1801 c-4 -6 -2 -11 4 -11 6 0 8 -6 4 -12 -6 -10 -4 -10 7 0 9 9 10 15 2
23 -8 8 -13 8 -17 0z M7759 8276 c-2 -2 -164 -6 -359 -10 -195 -3 -494 -11
-665 -16 -170 -5 -397 -9 -502 -10 -135 0 -193 -3 -193 -11 0 -8 57 -9 203 -5
111 4 443 11 737 16 884 16 1130 23 1136 32 5 8 -348 12 -357 4z M4505 8200
c-38 -5 -22 -7 68 -8 77 -1 116 2 112 8 -7 11 -101 11 -180 0z M3878 8193
c-71 -2 -128 -7 -128 -11 0 -4 80 -5 177 -3 105 2 168 7 153 11 -14 5 -36 7
-50 7 -14 -1 -82 -3 -152 -4z M2541 8074 c0 -11 3 -14 6 -6 3 7 2 16 -1 19 -3
4 -6 -2 -5 -13z M1860 8009 c0 -11 3 -18 8 -16 4 3 6 -34 5 -81 -2 -58 1 -80
7 -67 16 36 12 185 -5 185 -8 0 -15 -9 -15 -21z M4557 7909 c7 -7 15 -10 18
-7 3 3 -2 9 -12 12 -14 6 -15 5 -6 -5z M4603 7913 c4 -3 10 -3 14 0 3 4 0 7
-7 7 -7 0 -10 -3 -7 -7z M4394 7900 c-33 -13 -43 -35 -13 -26 13 3 43 9 67 13
23 3 44 9 47 13 6 10 -76 10 -101 0z M4530 7905 c0 -3 2 -5 5 -5 3 0 5 2 5 5
0 3 -2 5 -5 5 -3 0 -5 -2 -5 -5z M3850 7830 c-20 -3 -41 -10 -48 -14 -13 -8
-33 -12 -97 -22 -22 -3 -44 -10 -50 -15 -5 -5 -19 -9 -32 -9 -13 0 -23 -4 -23
-8 0 -4 -16 -14 -35 -21 -34 -12 -91 -59 -82 -67 2 -2 46 9 98 26 52 16 158
46 237 66 95 25 142 41 142 50 0 8 -3 15 -7 15 -26 5 -73 5 -103 -1z M563
7531 c-12 -10 -31 -40 -42 -67 -10 -27 -44 -103 -74 -169 -235 -519 -394
-1156 -433 -1745 -6 -93 -5 -103 8 -89 8 8 18 39 22 69 15 132 24 191 40 280
41 234 66 378 71 410 10 68 37 185 45 195 5 6 11 36 14 68 2 32 8 64 13 70 5
7 17 39 27 72 10 33 21 67 24 75 3 8 5 26 6 39 1 13 7 26 14 29 6 2 12 8 12
13 0 6 -6 7 -12 4 -7 -4 -5 0 4 8 10 8 15 17 12 20 -3 3 11 50 32 104 21 54
37 102 36 106 -1 4 4 20 12 35 8 15 24 54 35 87 11 32 25 61 29 64 13 9 42
100 42 131 0 14 4 30 9 36 5 5 11 20 13 34 5 33 18 -1617 18 -2247 l0 -493 28
-11 c39 -15 56 0 60 53 l3 44 -34 -4 -34 -4 -8 1370 -7 1370 21 21 c12 12 21
26 21 31 0 13 -1 13 -27 -9z M3146 7238 c-20 -31 -78 -199 -115 -333 -26 -97
-40 -160 -81 -370 -14 -73 -54 -379 -65 -495 -28 -295 -30 -644 -5 -767 5 -27
12 -95 15 -153 3 -58 9 -139 14 -180 5 -41 12 -104 16 -140 25 -269 154 -944
194 -1019 6 -11 11 -31 11 -45 0 -15 4 -34 9 -44 5 -9 24 -66 42 -126 18 -60
41 -127 51 -147 10 -21 18 -42 18 -47 0 -15 162 -377 221 -492 29 -58 52 -108
51 -112 -1 -5 3 -8 8 -8 6 0 10 -4 10 -9 0 -5 32 -65 72 -133 39 -67 81 -141
93 -163 12 -22 45 -76 72 -120 27 -44 56 -91 64 -105 8 -13 19 -30 26 -37 6
-7 21 -29 34 -50 13 -21 27 -42 31 -48 4 -5 60 -88 124 -184 64 -96 121 -180
125 -185 5 -6 23 -29 39 -51 51 -68 151 -183 231 -267 25 -26 45 -48 44 -48
-7 0 262 -265 315 -310 36 -30 83 -72 106 -93 113 -102 324 -237 372 -237 13
0 -54 57 -148 125 -262 190 -730 650 -895 880 -104 144 -385 575 -490 749
-468 780 -682 1433 -784 2391 -80 744 -76 966 25 1615 32 206 60 326 129 556
30 99 55 190 55 202 0 28 -16 28 -34 0z m1434 -5953 c0 -3 -2 -5 -5 -5 -3 0
-5 2 -5 5 0 3 2 5 5 5 3 0 5 -2 5 -5z M1920 7120 c0 -7 3 -10 7 -7 3 4 3 10 0
14 -4 3 -7 0 -7 -7z M1920 7060 c0 -7 3 -10 7 -7 3 4 3 10 0 14 -4 3 -7 0 -7
-7z M1920 7035 c0 -3 2 -5 5 -5 3 0 5 2 5 5 0 3 -2 5 -5 5 -3 0 -5 -2 -5 -5z
M6720 5876 c-200 -42 -298 -86 -390 -174 -71 -67 -86 -110 -52 -152 35 -43 89
-34 202 34 160 96 357 143 550 133 135 -7 231 -42 336 -122 60 -46 117 -75
146 -75 46 1 93 61 82 105 -8 34 -117 133 -173 157 -127 56 -246 89 -369 103
-162 19 -204 18 -332 -9z M4735 5883 c-253 -16 -598 -152 -636 -251 -12 -32 5
-87 34 -107 34 -24 68 -18 163 29 113 56 175 81 294 117 263 80 383 60 765
-126 89 -44 116 -50 160 -35 55 18 72 51 50 96 -15 33 -35 45 -228 140 -117
57 -239 110 -272 118 -56 14 -239 24 -330 19z M4475 5006 c-55 -37 -82 -78
-115 -175 -20 -59 -21 -83 -20 -356 1 -320 5 -351 59 -437 18 -27 53 -62 85
-83 l54 -37 294 4 c339 4 340 4 419 101 73 91 79 126 79 459 0 318 -6 356 -65
445 -21 31 -56 67 -82 83 l-47 30 -306 0 -305 0 -50 -34z M6695 5028 c-52 -19
-112 -76 -141 -133 -31 -64 -43 -180 -43 -415 0 -289 14 -356 97 -465 70 -92
67 -91 414 -91 349 1 338 -2 419 100 74 91 79 120 79 477 0 364 -1 368 -95
468 l-63 66 -319 2 c-206 1 -329 -2 -348 -9z M9045 4581 c-33 -33 -71 -75 -83
-93 -15 -20 -5 -13 22 17 26 28 68 69 94 92 26 24 43 43 37 43 -5 0 -37 -27
-70 -59z M8920 4435 c0 -3 2 -5 5 -5 3 0 5 2 5 5 0 3 -2 5 -5 5 -3 0 -5 -2 -5
-5z M8866 4358 c-45 -73 -96 -163 -96 -170 0 -10 21 -10 36 0 6 4 22 27 34 52
12 25 31 57 41 72 20 28 25 68 9 68 -5 0 -16 -10 -24 -22z M8940 4320 c-9 -6
-10 -10 -3 -10 6 0 15 5 18 10 8 12 4 12 -15 0z M8862 4183 c-7 -3 -20 -19
-28 -35 -16 -31 -16 -31 22 -65 114 -98 205 -158 233 -154 7 1 10 -2 6 -9 -4
-7 2 -14 14 -17 12 -3 54 -21 93 -40 77 -37 90 -36 67 5 -12 22 -23 27 -54 28
-34 2 -66 7 -85 14 -3 1 -9 2 -13 1 -5 -1 -5 4 -1 10 4 7 20 9 43 5 49 -8 233
14 228 28 -5 15 -72 19 -141 7 -64 -11 -110 -1 -200 46 -45 23 -156 133 -156
154 0 21 -10 28 -28 22z M4910 2962 c-23 -12 -43 -35 -58 -65 l-24 -46 21 -43
c12 -24 35 -63 51 -88 60 -91 74 -174 75 -466 1 -232 3 -265 19 -289 50 -76
202 -69 235 12 6 15 17 115 24 222 l12 193 95 40 c114 48 284 93 400 107 279
35 808 42 1025 15 151 -19 188 -11 225 48 45 71 2 186 -78 207 -142 37 -886
41 -1167 6 -197 -24 -431 -85 -503 -132 -32 -20 -49 -11 -57 29 -4 18 -21 60
-38 93 -77 155 -162 207 -257 157z m257 -445 c-6 -20 -27 -19 -27 2 0 14 5 19
15 14 9 -3 14 -10 12 -16z m-50 -144 c-4 -3 -7 0 -7 7 0 7 3 10 7 7 3 -4 3
-10 0 -14z M9440 2855 c0 -3 2 -5 5 -5 3 0 5 2 5 5 0 3 -2 5 -5 5 -3 0 -5 -2
-5 -5z M9417 2813 c-4 -3 -7 -11 -7 -17 0 -6 5 -5 12 2 6 6 9 14 7 17 -3 3 -9
2 -12 -2z M9380 2755 c0 -3 2 -5 5 -5 3 0 5 2 5 5 0 3 -2 5 -5 5 -3 0 -5 -2
-5 -5z M9340 2723 c-13 -15 -12 -16 4 -10 10 4 20 7 22 7 2 0 4 5 4 10 0 15
-13 12 -30 -7z M8394 1434 c-8 -4 -8 -15 1 -42 16 -45 26 -47 37 -7 13 47 -1
64 -38 49z M5413 448 c-11 -13 -42 -57 -68 -98 -46 -73 -99 -129 -204 -219
-28 -24 -51 -50 -51 -57 0 -8 -6 -14 -12 -14 -9 0 -9 -3 1 -9 28 -18 210 128
283 226 81 111 124 251 51 171z M5070 35 c0 -3 2 -5 5 -5 3 0 5 2 5 5 0 3 -2
5 -5 5 -3 0 -5 -2 -5 -5z M5153 3 c37 -2 96 -2 130 0 34 2 4 3 -68 3 -71 0
-99 -1 -62 -3z"/>
</g>
</svg>
