<?xml version="1.0" standalone="no"?>
<!DOCTYPE svg PUBLIC "-//W3C//DTD SVG 20010904//EN"
 "http://www.w3.org/TR/2001/REC-SVG-20010904/DTD/svg10.dtd">
<svg version="1.0" xmlns="http://www.w3.org/2000/svg"
 width="1039.000000pt" height="1039.000000pt" viewBox="0 0 1039.000000 1039.000000"
 preserveAspectRatio="xMidYMid meet">

<g transform="translate(0.000000,1039.000000) scale(0.100000,-0.100000)"
fill="#000000" stroke="none">
<path d="M4585 10374 c-1609 -191 -3021 -1104 -3857 -2494 -326 -541 -559
-1173 -662 -1795 -56 -333 -61 -410 -61 -870 0 -460 5 -537 61 -870 264 -1591
1280 -2985 2724 -3738 1292 -674 2831 -769 4202 -261 1203 446 2205 1331 2801
2474 674 1292 769 2831 261 4202 -446 1203 -1331 2205 -2474 2801 -558 291
-1175 479 -1810 552 -183 20 -1007 20 -1185 -1z m1295 -158 c447 -66 896 -189
1266 -346 171 -73 545 -266 679 -350 587 -370 1067 -817 1464 -1365 376 -518
663 -1143 810 -1765 66 -277 101 -527 137 -977 17 -216 12 -336 -32 -758 -107
-1033 -555 -2037 -1249 -2799 -49 -55 -115 -127 -145 -161 -72 -81 -416 -393
-424 -384 -2 2 -22 42 -44 88 -38 80 -40 85 -24 109 15 23 120 107 206 165 22
15 43 32 45 38 2 6 16 18 31 27 15 10 53 49 84 87 70 87 96 115 106 115 17 0
183 226 234 320 111 205 168 402 195 682 8 84 7 134 -4 230 -33 287 -96 467
-207 600 -51 61 -211 197 -288 246 -30 19 -73 57 -94 84 -91 116 -115 249 -97
543 32 522 32 999 1 1200 -5 33 -16 118 -25 189 -23 193 -82 416 -170 646 -7
19 -43 94 -80 165 -37 72 -75 144 -83 160 -32 62 -189 285 -201 285 -3 0 -19
20 -36 45 -16 24 -40 49 -52 56 -12 7 -25 20 -28 30 -3 9 -18 25 -33 35 -15 9
-49 36 -77 59 -139 117 -386 256 -572 321 -120 43 -425 120 -553 140 -224 35
-377 46 -685 47 -275 0 -314 -1 -347 -17 -22 -10 -41 -29 -49 -47 -10 -26 -9
-34 8 -57 l20 -27 419 -6 c465 -6 559 -16 840 -85 168 -41 248 -67 369 -122
379 -172 597 -364 797 -699 211 -357 300 -628 354 -1083 23 -191 26 -879 5
-1219 -13 -214 -13 -242 2 -339 32 -197 105 -316 295 -478 122 -105 203 -193
244 -264 51 -89 95 -254 118 -440 11 -84 9 -112 -10 -245 -38 -268 -78 -376
-239 -650 -29 -49 -102 -151 -163 -226 -86 -107 -137 -159 -241 -245 -221
-183 -267 -215 -552 -382 -686 -402 -1539 -677 -2205 -712 -367 -20 -840 -11
-1120 20 -47 6 -125 15 -175 20 -136 15 -252 38 -445 86 -463 118 -831 278
-1214 528 -237 155 -601 463 -753 638 -18 20 -38 40 -45 45 -19 12 -181 202
-262 308 -38 50 -87 111 -108 137 -115 141 -280 453 -353 669 -49 145 -109
394 -100 417 3 7 1 21 -4 31 -5 9 -17 98 -26 197 -9 98 -18 186 -21 195 -12
42 42 628 61 659 3 4 12 41 20 81 8 41 43 157 76 259 55 167 84 244 138 365
10 22 22 51 26 65 9 29 140 284 183 356 99 165 247 393 262 404 4 3 34 41 67
85 104 140 350 422 498 570 216 216 391 369 600 524 228 170 259 191 270 191
8 0 15 -35 19 -102 8 -116 22 -149 74 -174 59 -28 134 9 151 74 14 50 33 335
25 366 -18 73 82 449 169 636 19 41 51 110 71 152 19 43 42 107 51 143 13 59
13 68 -2 99 -35 75 -104 68 -165 -17 -73 -102 -105 -166 -185 -368 -78 -195
-121 -355 -148 -539 -4 -25 -13 -68 -21 -97 l-15 -51 -34 9 c-53 15 -92 -1
-228 -92 -193 -130 -441 -330 -572 -462 -22 -22 -81 -79 -131 -126 -160 -151
-405 -429 -600 -681 -149 -193 -332 -487 -424 -680 -28 -58 -58 -118 -66 -135
-20 -37 -117 -275 -151 -370 -156 -439 -220 -862 -194 -1277 10 -158 45 -386
76 -498 8 -30 29 -111 46 -180 30 -121 50 -168 168 -410 75 -151 251 -430 272
-430 4 0 11 -10 14 -22 4 -13 17 -36 30 -53 12 -16 25 -40 29 -52 4 -12 15
-25 26 -28 10 -3 21 -13 24 -21 10 -26 110 -142 128 -149 10 -3 25 -19 34 -34
9 -15 36 -41 60 -57 24 -16 47 -38 50 -49 4 -11 10 -22 14 -25 54 -36 423
-358 433 -379 5 -9 23 -25 40 -37 125 -82 205 -140 286 -208 52 -42 113 -87
137 -98 66 -33 70 -67 18 -177 -19 -41 -37 -77 -39 -79 -6 -6 -280 171 -409
265 -176 129 -286 218 -442 359 -72 66 -144 131 -160 145 -48 43 -310 340
-403 456 -105 133 -262 355 -354 500 -74 119 -281 522 -346 676 -162 383 -290
855 -353 1302 -46 334 -46 976 0 1310 118 847 418 1605 900 2278 151 211 467
581 581 682 25 22 100 89 166 149 664 602 1476 1008 2380 1191 365 74 514 85
1110 79 360 -3 417 -6 565 -28z m2284 -8832 c9 -8 16 -21 16 -29 0 -7 14 -43
31 -79 17 -36 29 -73 26 -80 -6 -16 -234 -180 -352 -254 -378 -235 -719 -395
-1135 -532 -411 -136 -818 -210 -1335 -241 -243 -15 -208 -15 -445 -1 -770 48
-1339 191 -1980 499 -85 40 -165 80 -177 88 l-21 14 51 105 c29 58 60 108 69
111 9 3 43 -7 75 -23 121 -61 404 -171 563 -220 504 -155 986 -225 1525 -225
510 1 833 32 1190 112 186 42 525 141 670 196 39 15 86 31 105 37 19 5 40 14
46 19 6 5 42 20 80 33 149 51 494 218 734 355 139 80 230 129 242 130 4 1 14
-6 22 -15z"/>
<path d="M4838 9206 c-45 -16 -113 -75 -196 -169 -80 -91 -264 -367 -304 -455
-16 -37 -38 -85 -48 -107 -10 -22 -27 -63 -38 -90 -11 -28 -29 -68 -40 -90
-31 -59 -89 -205 -134 -335 -21 -63 -55 -158 -74 -212 -19 -53 -48 -161 -64
-239 -35 -168 -31 -207 23 -239 75 -46 133 -9 165 106 11 38 32 125 47 194 23
110 40 170 112 405 41 136 275 609 370 750 83 123 222 282 274 312 39 23 63
85 49 128 -17 52 -69 67 -142 41z"/>
<path d="M5825 9130 c-29 -13 -85 -66 -137 -130 -65 -81 -213 -290 -267 -379
-58 -96 -159 -340 -255 -618 -24 -70 -56 -159 -71 -197 -33 -87 -57 -222 -46
-261 13 -51 82 -70 140 -40 35 17 52 54 87 176 97 347 136 452 274 734 105
214 134 260 273 429 58 71 114 145 123 164 16 34 16 37 -2 70 -11 20 -33 41
-51 49 -37 15 -40 15 -68 3z"/>
<path d="M6821 5889 c-110 -14 -243 -48 -321 -82 -182 -80 -281 -201 -211
-259 33 -26 78 -22 136 12 108 62 148 82 233 109 112 38 257 55 388 48 122 -7
217 -41 316 -114 73 -54 133 -82 159 -76 34 9 69 50 69 82 0 41 -89 129 -167
166 -148 70 -255 95 -503 119 -19 2 -64 -1 -99 -5z"/>
<path d="M4720 5878 c-201 -14 -503 -122 -588 -209 -41 -42 -43 -89 -7 -124
35 -35 79 -32 162 11 207 108 452 173 601 160 97 -9 168 -32 342 -112 199 -90
238 -103 275 -91 65 21 82 62 45 110 -27 34 -362 200 -474 234 -64 19 -238 30
-356 21z"/>
<path d="M4492 5010 c-63 -37 -102 -93 -131 -190 -19 -62 -21 -93 -21 -345 0
-226 3 -287 16 -333 20 -69 72 -143 128 -181 39 -27 48 -28 186 -34 80 -4 220
-3 311 2 161 8 168 9 207 37 53 38 109 120 123 180 14 61 15 611 1 672 -15 64
-78 155 -131 188 l-46 29 -295 3 -295 3 -53 -31z"/>
<path d="M6770 5031 c-72 -6 -91 -11 -127 -36 -44 -32 -98 -111 -107 -160 -3
-16 -10 -100 -16 -185 -11 -162 2 -466 21 -519 18 -47 91 -147 125 -170 29
-20 50 -24 151 -29 185 -8 468 -4 510 7 46 13 88 52 139 129 l38 56 8 183 c11
235 -2 535 -25 579 -23 44 -103 122 -141 138 -34 14 -422 19 -576 7z"/>
<path d="M4942 2966 c-45 -16 -76 -47 -88 -88 -13 -40 -2 -77 37 -133 43 -60
67 -139 85 -285 14 -106 15 -153 7 -235 -11 -117 0 -240 24 -267 8 -9 34 -23
58 -32 55 -18 119 -2 149 37 20 27 22 45 42 341 l6 88 72 34 c169 78 334 116
581 135 222 17 719 17 875 0 112 -12 129 -12 163 3 51 21 83 87 65 137 -17 52
-36 76 -71 92 -76 36 -455 53 -822 37 -390 -16 -556 -42 -781 -121 -49 -17
-97 -32 -107 -33 -13 -1 -27 19 -52 78 -49 111 -88 169 -132 193 -54 29 -74
33 -111 19z"/>
</g>
</svg>
